<svg id="container" width="2360" xmlns="http://www.w3.org/2000/svg" height="1593" viewBox="-187 -10 2360 1593" role="graphics-document document" aria-roledescription="sequence"><g><rect x="1284" y="-5" fill="rgb(255, 244, 229)" stroke="rgb(0,0,0, 0.5)" width="676" height="1587" class="rect"></rect><text x="1622" y="14.5" dominant-baseline="central" alignment-baseline="central" class="text" style="text-anchor: middle; font-size: 16px; font-weight: 400;"><tspan x="1622" dy="0">Upstream ViSTA outputs</tspan></text></g><g><rect x="-20" y="-5" fill="rgb(232, 241, 255)" stroke="rgb(0,0,0, 0.5)" width="1284" height="1587" class="rect"></rect><text x="622" y="14.5" dominant-baseline="central" alignment-baseline="central" class="text" style="text-anchor: middle; font-size: 16px; font-weight: 400;"><tspan x="622" dy="0">Repo wrapper</tspan></text></g><g><rect x="1785" y="1497" fill="#eaeaea" stroke="#666" width="150" height="65" name="Export" rx="3" ry="3" class="actor actor-bottom"></rect><text x="1860" y="1529.5" dominant-baseline="central" alignment-baseline="central" class="actor actor-box" style="text-anchor: middle; font-size: 16px; font-weight: 400;"><tspan x="1860" dy="0">save_data_all</tspan></text></g><g><rect x="1309" y="1497" fill="#eaeaea" stroke="#666" width="150" height="65" name="Slam" rx="3" ry="3" class="actor actor-bottom"></rect><text x="1384" y="1529.5" dominant-baseline="central" alignment-baseline="central" class="actor actor-box" style="text-anchor: middle; font-size: 16px; font-weight: 400;"><tspan x="1384" dy="0">OnlineSLAM</tspan></text></g><g><rect x="1059" y="1497" fill="#eaeaea" stroke="#666" width="180" height="65" name="Writers" rx="3" ry="3" class="actor actor-bottom"></rect><text x="1149" y="1529.5" dominant-baseline="central" alignment-baseline="central" class="actor actor-box" style="text-anchor: middle; font-size: 16px; font-weight: 400;"><tspan x="1149" dy="0">repo geometry writers</tspan></text></g><g><rect x="668.5" y="1497" fill="#eaeaea" stroke="#666" width="167" height="65" name="Normalize" rx="3" ry="3" class="actor actor-bottom"></rect><text x="752" y="1529.5" dominant-baseline="central" alignment-baseline="central" class="actor actor-box" style="text-anchor: middle; font-size: 16px; font-weight: 400;"><tspan x="752" dy="0">build_vista_artifacts</tspan></text></g><g><rect x="5" y="1497" fill="#eaeaea" stroke="#666" width="150" height="65" name="Caller" rx="3" ry="3" class="actor actor-bottom"></rect><text x="80" y="1529.5" dominant-baseline="central" alignment-baseline="central" class="actor actor-box" style="text-anchor: middle; font-size: 16px; font-weight: 400;"><tspan x="80" dy="0">VistaSlamSession</tspan></text></g><g><line id="actor4" x1="1860" y1="94" x2="1860" y2="1497" class="actor-line 200" stroke-width="0.5px" stroke="#999" name="Export"></line><g id="root-4"><rect x="1785" y="29" fill="#eaeaea" stroke="#666" width="150" height="65" name="Export" rx="3" ry="3" class="actor actor-top"></rect><text x="1860" y="61.5" dominant-baseline="central" alignment-baseline="central" class="actor actor-box" style="text-anchor: middle; font-size: 16px; font-weight: 400;"><tspan x="1860" dy="0">save_data_all</tspan></text></g></g><g><line id="actor3" x1="1384" y1="94" x2="1384" y2="1497" class="actor-line 200" stroke-width="0.5px" stroke="#999" name="Slam"></line><g id="root-3"><rect x="1309" y="29" fill="#eaeaea" stroke="#666" width="150" height="65" name="Slam" rx="3" ry="3" class="actor actor-top"></rect><text x="1384" y="61.5" dominant-baseline="central" alignment-baseline="central" class="actor actor-box" style="text-anchor: middle; font-size: 16px; font-weight: 400;"><tspan x="1384" dy="0">OnlineSLAM</tspan></text></g></g><g><line id="actor2" x1="1149" y1="94" x2="1149" y2="1497" class="actor-line 200" stroke-width="0.5px" stroke="#999" name="Writers"></line><g id="root-2"><rect x="1059" y="29" fill="#eaeaea" stroke="#666" width="180" height="65" name="Writers" rx="3" ry="3" class="actor actor-top"></rect><text x="1149" y="61.5" dominant-baseline="central" alignment-baseline="central" class="actor actor-box" style="text-anchor: middle; font-size: 16px; font-weight: 400;"><tspan x="1149" dy="0">repo geometry writers</tspan></text></g></g><g><line id="actor1" x1="752" y1="94" x2="752" y2="1497" class="actor-line 200" stroke-width="0.5px" stroke="#999" name="Normalize"></line><g id="root-1"><rect x="668.5" y="29" fill="#eaeaea" stroke="#666" width="167" height="65" name="Normalize" rx="3" ry="3" class="actor actor-top"></rect><text x="752" y="61.5" dominant-baseline="central" alignment-baseline="central" class="actor actor-box" style="text-anchor: middle; font-size: 16px; font-weight: 400;"><tspan x="752" dy="0">build_vista_artifacts</tspan></text></g></g><g><line id="actor0" x1="80" y1="94" x2="80" y2="1497" class="actor-line 200" stroke-width="0.5px" stroke="#999" name="Caller"></line><g id="root-0"><rect x="5" y="29" fill="#eaeaea" stroke="#666" width="150" height="65" name="Caller" rx="3" ry="3" class="actor actor-top"></rect><text x="80" y="61.5" dominant-baseline="central" alignment-baseline="central" class="actor actor-box" style="text-anchor: middle; font-size: 16px; font-weight: 400;"><tspan x="80" dy="0">VistaSlamSession</tspan></text></g></g><style>#container{font-family:"trebuchet ms",verdana,arial,sans-serif;font-size:24px;fill:#333;}@keyframes edge-animation-frame{from{stroke-dashoffset:0;}}@keyframes dash{to{stroke-dashoffset:0;}}#container .edge-animation-slow{stroke-dasharray:9,5!important;stroke-dashoffset:900;animation:dash 50s linear infinite;stroke-linecap:round;}#container .edge-animation-fast{stroke-dasharray:9,5!important;stroke-dashoffset:900;animation:dash 20s linear infinite;stroke-linecap:round;}#container .error-icon{fill:hsl(220.5882352941, 100%, 98.3333333333%);}#container .error-text{fill:rgb(8.5000000002, 5.7500000001, 0);stroke:rgb(8.5000000002, 5.7500000001, 0);}#container .edge-thickness-normal{stroke-width:1px;}#container .edge-thickness-thick{stroke-width:3.5px;}#container .edge-pattern-solid{stroke-dasharray:0;}#container .edge-thickness-invisible{stroke-width:0;fill:none;}#container .edge-pattern-dashed{stroke-dasharray:3;}#container .edge-pattern-dotted{stroke-dasharray:2;}#container .marker{fill:#0b0b0b;stroke:#0b0b0b;}#container .marker.cross{stroke:#0b0b0b;}#container svg{font-family:"trebuchet ms",verdana,arial,sans-serif;font-size:24px;}#container p{margin:0;}#container .actor{stroke:hsl(40.5882352941, 60%, 83.3333333333%);fill:#fff4dd;}#container text.actor&gt;tspan{fill:#333;stroke:none;}#container .actor-line{stroke:hsl(40.5882352941, 60%, 83.3333333333%);}#container .innerArc{stroke-width:1.5;stroke-dasharray:none;}#container .messageLine0{stroke-width:1.5;stroke-dasharray:none;stroke:#333;}#container .messageLine1{stroke-width:1.5;stroke-dasharray:2,2;stroke:#333;}#container #arrowhead path{fill:#333;stroke:#333;}#container .sequenceNumber{fill:#f4f4f4;}#container #sequencenumber{fill:#333;}#container #crosshead path{fill:#333;stroke:#333;}#container .messageText{fill:#333;stroke:none;}#container .labelBox{stroke:hsl(40.5882352941, 60%, 83.3333333333%);fill:#fff4dd;}#container .labelText,#container .labelText&gt;tspan{fill:#333;stroke:none;}#container .loopText,#container .loopText&gt;tspan{fill:#333;stroke:none;}#container .loopLine{stroke-width:2px;stroke-dasharray:2,2;stroke:hsl(40.5882352941, 60%, 83.3333333333%);fill:hsl(40.5882352941, 60%, 83.3333333333%);}#container .note{stroke:hsl(52.6829268293, 60%, 73.9215686275%);fill:#fff5ad;}#container .noteText,#container .noteText&gt;tspan{fill:#333;stroke:none;}#container .activation0{fill:hsl(-79.4117647059, 100%, 93.3333333333%);stroke:hsl(-79.4117647059, 100%, 83.3333333333%);}#container .activation1{fill:hsl(-79.4117647059, 100%, 93.3333333333%);stroke:hsl(-79.4117647059, 100%, 83.3333333333%);}#container .activation2{fill:hsl(-79.4117647059, 100%, 93.3333333333%);stroke:hsl(-79.4117647059, 100%, 83.3333333333%);}#container .actorPopupMenu{position:absolute;}#container .actorPopupMenuPanel{position:absolute;fill:#fff4dd;box-shadow:0px 8px 16px 0px rgba(0,0,0,0.2);filter:drop-shadow(3px 5px 2px rgb(0 0 0 / 0.4));}#container .actor-man line{stroke:hsl(40.5882352941, 60%, 83.3333333333%);fill:#fff4dd;}#container .actor-man circle,#container line{stroke:hsl(40.5882352941, 60%, 83.3333333333%);fill:#fff4dd;stroke-width:2px;}#container :root{--mermaid-font-family:"trebuchet ms",verdana,arial,sans-serif;}</style><g></g><defs><symbol id="computer" width="24" height="24"><path transform="scale(.5)" d="M2 2v13h20v-13h-20zm18 11h-16v-9h16v9zm-10.228 6l.466-1h3.524l.467 1h-4.457zm14.228 3h-24l2-6h2.104l-1.33 4h18.45l-1.297-4h2.073l2 6zm-5-10h-14v-7h14v7z"></path></symbol></defs><defs><symbol id="database" fill-rule="evenodd" clip-rule="evenodd"><path transform="scale(.5)" d="M12.258.001l.256.004.255.005.253.008.251.01.249.012.247.015.246.016.242.019.241.02.239.023.236.024.233.027.231.028.229.031.225.032.223.034.22.036.217.038.214.04.211.041.208.043.205.045.201.046.198.048.194.05.191.051.187.053.183.054.18.056.175.057.172.059.168.06.163.061.16.063.155.064.15.066.074.033.073.033.071.034.07.034.069.035.068.035.067.035.066.035.064.036.064.036.062.036.06.036.06.037.058.037.058.037.055.038.055.038.053.038.052.038.051.039.05.039.048.039.047.039.045.04.044.04.043.04.041.04.04.041.039.041.037.041.036.041.034.041.033.042.032.042.03.042.029.042.027.042.026.043.024.043.023.043.021.043.02.043.018.044.017.043.015.044.013.044.012.044.011.045.009.044.007.045.006.045.004.045.002.045.001.045v17l-.001.045-.002.045-.004.045-.006.045-.007.045-.009.044-.011.045-.012.044-.013.044-.015.044-.017.043-.018.044-.02.043-.021.043-.023.043-.024.043-.026.043-.027.042-.029.042-.03.042-.032.042-.033.042-.034.041-.036.041-.037.041-.039.041-.04.041-.041.04-.043.04-.044.04-.045.04-.047.039-.048.039-.05.039-.051.039-.052.038-.053.038-.055.038-.055.038-.058.037-.058.037-.06.037-.06.036-.062.036-.064.036-.064.036-.066.035-.067.035-.068.035-.069.035-.07.034-.071.034-.073.033-.074.033-.15.066-.155.064-.16.063-.163.061-.168.06-.172.059-.175.057-.18.056-.183.054-.187.053-.191.051-.194.05-.198.048-.201.046-.205.045-.208.043-.211.041-.214.04-.217.038-.22.036-.223.034-.225.032-.229.031-.231.028-.233.027-.236.024-.239.023-.241.02-.242.019-.246.016-.247.015-.249.012-.251.01-.253.008-.255.005-.256.004-.258.001-.258-.001-.256-.004-.255-.005-.253-.008-.251-.01-.249-.012-.247-.015-.245-.016-.243-.019-.241-.02-.238-.023-.236-.024-.234-.027-.231-.028-.228-.031-.226-.032-.223-.034-.22-.036-.217-.038-.214-.04-.211-.041-.208-.043-.204-.045-.201-.046-.198-.048-.195-.05-.19-.051-.187-.053-.184-.054-.179-.056-.176-.057-.172-.059-.167-.06-.164-.061-.159-.063-.155-.064-.151-.066-.074-.033-.072-.033-.072-.034-.07-.034-.069-.035-.068-.035-.067-.035-.066-.035-.064-.036-.063-.036-.062-.036-.061-.036-.06-.037-.058-.037-.057-.037-.056-.038-.055-.038-.053-.038-.052-.038-.051-.039-.049-.039-.049-.039-.046-.039-.046-.04-.044-.04-.043-.04-.041-.04-.04-.041-.039-.041-.037-.041-.036-.041-.034-.041-.033-.042-.032-.042-.03-.042-.029-.042-.027-.042-.026-.043-.024-.043-.023-.043-.021-.043-.02-.043-.018-.044-.017-.043-.015-.044-.013-.044-.012-.044-.011-.045-.009-.044-.007-.045-.006-.045-.004-.045-.002-.045-.001-.045v-17l.001-.045.002-.045.004-.045.006-.045.007-.045.009-.044.011-.045.012-.044.013-.044.015-.044.017-.043.018-.044.02-.043.021-.043.023-.043.024-.043.026-.043.027-.042.029-.042.03-.042.032-.042.033-.042.034-.041.036-.041.037-.041.039-.041.04-.041.041-.04.043-.04.044-.04.046-.04.046-.039.049-.039.049-.039.051-.039.052-.038.053-.038.055-.038.056-.038.057-.037.058-.037.06-.037.061-.036.062-.036.063-.036.064-.036.066-.035.067-.035.068-.035.069-.035.07-.034.072-.034.072-.033.074-.033.151-.066.155-.064.159-.063.164-.061.167-.06.172-.059.176-.057.179-.056.184-.054.187-.053.19-.051.195-.05.198-.048.201-.046.204-.045.208-.043.211-.041.214-.04.217-.038.22-.036.223-.034.226-.032.228-.031.231-.028.234-.027.236-.024.238-.023.241-.02.243-.019.245-.016.247-.015.249-.012.251-.01.253-.008.255-.005.256-.004.258-.001.258.001zm-9.258 20.499v.01l.001.021.003.021.004.022.005.021.006.022.007.022.009.023.01.022.011.023.012.023.013.023.015.023.016.024.017.023.018.024.019.024.021.024.022.025.023.024.024.025.052.049.056.05.061.051.066.051.07.051.075.051.079.052.084.052.088.052.092.052.097.052.102.051.105.052.11.052.114.051.119.051.123.051.127.05.131.05.135.05.139.048.144.049.147.047.152.047.155.047.16.045.163.045.167.043.171.043.176.041.178.041.183.039.187.039.19.037.194.035.197.035.202.033.204.031.209.03.212.029.216.027.219.025.222.024.226.021.23.02.233.018.236.016.24.015.243.012.246.01.249.008.253.005.256.004.259.001.26-.001.257-.004.254-.005.25-.008.247-.011.244-.012.241-.014.237-.016.233-.018.231-.021.226-.021.224-.024.22-.026.216-.027.212-.028.21-.031.205-.031.202-.034.198-.034.194-.036.191-.037.187-.039.183-.04.179-.04.175-.042.172-.043.168-.044.163-.045.16-.046.155-.046.152-.047.148-.048.143-.049.139-.049.136-.05.131-.05.126-.05.123-.051.118-.052.114-.051.11-.052.106-.052.101-.052.096-.052.092-.052.088-.053.083-.051.079-.052.074-.052.07-.051.065-.051.06-.051.056-.05.051-.05.023-.024.023-.025.021-.024.02-.024.019-.024.018-.024.017-.024.015-.023.014-.024.013-.023.012-.023.01-.023.01-.022.008-.022.006-.022.006-.022.004-.022.004-.021.001-.021.001-.021v-4.127l-.077.055-.08.053-.083.054-.085.053-.087.052-.09.052-.093.051-.095.05-.097.05-.1.049-.102.049-.105.048-.106.047-.109.047-.111.046-.114.045-.115.045-.118.044-.12.043-.122.042-.124.042-.126.041-.128.04-.13.04-.132.038-.134.038-.135.037-.138.037-.139.035-.142.035-.143.034-.144.033-.147.032-.148.031-.15.03-.151.03-.153.029-.154.027-.156.027-.158.026-.159.025-.161.024-.162.023-.163.022-.165.021-.166.02-.167.019-.169.018-.169.017-.171.016-.173.015-.173.014-.175.013-.175.012-.177.011-.178.01-.179.008-.179.008-.181.006-.182.005-.182.004-.184.003-.184.002h-.37l-.184-.002-.184-.003-.182-.004-.182-.005-.181-.006-.179-.008-.179-.008-.178-.01-.176-.011-.176-.012-.175-.013-.173-.014-.172-.015-.171-.016-.17-.017-.169-.018-.167-.019-.166-.02-.165-.021-.163-.022-.162-.023-.161-.024-.159-.025-.157-.026-.156-.027-.155-.027-.153-.029-.151-.03-.15-.03-.148-.031-.146-.032-.145-.033-.143-.034-.141-.035-.14-.035-.137-.037-.136-.037-.134-.038-.132-.038-.13-.04-.128-.04-.126-.041-.124-.042-.122-.042-.12-.044-.117-.043-.116-.045-.113-.045-.112-.046-.109-.047-.106-.047-.105-.048-.102-.049-.1-.049-.097-.05-.095-.05-.093-.052-.09-.051-.087-.052-.085-.053-.083-.054-.08-.054-.077-.054v4.127zm0-5.654v.011l.001.021.003.021.004.021.005.022.006.022.007.022.009.022.01.022.011.023.012.023.013.023.015.024.016.023.017.024.018.024.019.024.021.024.022.024.023.025.024.024.052.05.056.05.061.05.066.051.07.051.075.052.079.051.084.052.088.052.092.052.097.052.102.052.105.052.11.051.114.051.119.052.123.05.127.051.131.05.135.049.139.049.144.048.147.048.152.047.155.046.16.045.163.045.167.044.171.042.176.042.178.04.183.04.187.038.19.037.194.036.197.034.202.033.204.032.209.03.212.028.216.027.219.025.222.024.226.022.23.02.233.018.236.016.24.014.243.012.246.01.249.008.253.006.256.003.259.001.26-.001.257-.003.254-.006.25-.008.247-.01.244-.012.241-.015.237-.016.233-.018.231-.02.226-.022.224-.024.22-.025.216-.027.212-.029.21-.03.205-.032.202-.033.198-.035.194-.036.191-.037.187-.039.183-.039.179-.041.175-.042.172-.043.168-.044.163-.045.16-.045.155-.047.152-.047.148-.048.143-.048.139-.05.136-.049.131-.05.126-.051.123-.051.118-.051.114-.052.11-.052.106-.052.101-.052.096-.052.092-.052.088-.052.083-.052.079-.052.074-.051.07-.052.065-.051.06-.05.056-.051.051-.049.023-.025.023-.024.021-.025.02-.024.019-.024.018-.024.017-.024.015-.023.014-.023.013-.024.012-.022.01-.023.01-.023.008-.022.006-.022.006-.022.004-.021.004-.022.001-.021.001-.021v-4.139l-.077.054-.08.054-.083.054-.085.052-.087.053-.09.051-.093.051-.095.051-.097.05-.1.049-.102.049-.105.048-.106.047-.109.047-.111.046-.114.045-.115.044-.118.044-.12.044-.122.042-.124.042-.126.041-.128.04-.13.039-.132.039-.134.038-.135.037-.138.036-.139.036-.142.035-.143.033-.144.033-.147.033-.148.031-.15.03-.151.03-.153.028-.154.028-.156.027-.158.026-.159.025-.161.024-.162.023-.163.022-.165.021-.166.02-.167.019-.169.018-.169.017-.171.016-.173.015-.173.014-.175.013-.175.012-.177.011-.178.009-.179.009-.179.007-.181.007-.182.005-.182.004-.184.003-.184.002h-.37l-.184-.002-.184-.003-.182-.004-.182-.005-.181-.007-.179-.007-.179-.009-.178-.009-.176-.011-.176-.012-.175-.013-.173-.014-.172-.015-.171-.016-.17-.017-.169-.018-.167-.019-.166-.02-.165-.021-.163-.022-.162-.023-.161-.024-.159-.025-.157-.026-.156-.027-.155-.028-.153-.028-.151-.03-.15-.03-.148-.031-.146-.033-.145-.033-.143-.033-.141-.035-.14-.036-.137-.036-.136-.037-.134-.038-.132-.039-.13-.039-.128-.04-.126-.041-.124-.042-.122-.043-.12-.043-.117-.044-.116-.044-.113-.046-.112-.046-.109-.046-.106-.047-.105-.048-.102-.049-.1-.049-.097-.05-.095-.051-.093-.051-.09-.051-.087-.053-.085-.052-.083-.054-.08-.054-.077-.054v4.139zm0-5.666v.011l.001.02.003.022.004.021.005.022.006.021.007.022.009.023.01.022.011.023.012.023.013.023.015.023.016.024.017.024.018.023.019.024.021.025.022.024.023.024.024.025.052.05.056.05.061.05.066.051.07.051.075.052.079.051.084.052.088.052.092.052.097.052.102.052.105.051.11.052.114.051.119.051.123.051.127.05.131.05.135.05.139.049.144.048.147.048.152.047.155.046.16.045.163.045.167.043.171.043.176.042.178.04.183.04.187.038.19.037.194.036.197.034.202.033.204.032.209.03.212.028.216.027.219.025.222.024.226.021.23.02.233.018.236.017.24.014.243.012.246.01.249.008.253.006.256.003.259.001.26-.001.257-.003.254-.006.25-.008.247-.01.244-.013.241-.014.237-.016.233-.018.231-.02.226-.022.224-.024.22-.025.216-.027.212-.029.21-.03.205-.032.202-.033.198-.035.194-.036.191-.037.187-.039.183-.039.179-.041.175-.042.172-.043.168-.044.163-.045.16-.045.155-.047.152-.047.148-.048.143-.049.139-.049.136-.049.131-.051.126-.05.123-.051.118-.052.114-.051.11-.052.106-.052.101-.052.096-.052.092-.052.088-.052.083-.052.079-.052.074-.052.07-.051.065-.051.06-.051.056-.05.051-.049.023-.025.023-.025.021-.024.02-.024.019-.024.018-.024.017-.024.015-.023.014-.024.013-.023.012-.023.01-.022.01-.023.008-.022.006-.022.006-.022.004-.022.004-.021.001-.021.001-.021v-4.153l-.077.054-.08.054-.083.053-.085.053-.087.053-.09.051-.093.051-.095.051-.097.05-.1.049-.102.048-.105.048-.106.048-.109.046-.111.046-.114.046-.115.044-.118.044-.12.043-.122.043-.124.042-.126.041-.128.04-.13.039-.132.039-.134.038-.135.037-.138.036-.139.036-.142.034-.143.034-.144.033-.147.032-.148.032-.15.03-.151.03-.153.028-.154.028-.156.027-.158.026-.159.024-.161.024-.162.023-.163.023-.165.021-.166.02-.167.019-.169.018-.169.017-.171.016-.173.015-.173.014-.175.013-.175.012-.177.01-.178.01-.179.009-.179.007-.181.006-.182.006-.182.004-.184.003-.184.001-.185.001-.185-.001-.184-.001-.184-.003-.182-.004-.182-.006-.181-.006-.179-.007-.179-.009-.178-.01-.176-.01-.176-.012-.175-.013-.173-.014-.172-.015-.171-.016-.17-.017-.169-.018-.167-.019-.166-.02-.165-.021-.163-.023-.162-.023-.161-.024-.159-.024-.157-.026-.156-.027-.155-.028-.153-.028-.151-.03-.15-.03-.148-.032-.146-.032-.145-.033-.143-.034-.141-.034-.14-.036-.137-.036-.136-.037-.134-.038-.132-.039-.13-.039-.128-.041-.126-.041-.124-.041-.122-.043-.12-.043-.117-.044-.116-.044-.113-.046-.112-.046-.109-.046-.106-.048-.105-.048-.102-.048-.1-.05-.097-.049-.095-.051-.093-.051-.09-.052-.087-.052-.085-.053-.083-.053-.08-.054-.077-.054v4.153zm8.74-8.179l-.257.004-.254.005-.25.008-.247.011-.244.012-.241.014-.237.016-.233.018-.231.021-.226.022-.224.023-.22.026-.216.027-.212.028-.21.031-.205.032-.202.033-.198.034-.194.036-.191.038-.187.038-.183.04-.179.041-.175.042-.172.043-.168.043-.163.045-.16.046-.155.046-.152.048-.148.048-.143.048-.139.049-.136.05-.131.05-.126.051-.123.051-.118.051-.114.052-.11.052-.106.052-.101.052-.096.052-.092.052-.088.052-.083.052-.079.052-.074.051-.07.052-.065.051-.06.05-.056.05-.051.05-.023.025-.023.024-.021.024-.02.025-.019.024-.018.024-.017.023-.015.024-.014.023-.013.023-.012.023-.01.023-.01.022-.008.022-.006.023-.006.021-.004.022-.004.021-.001.021-.001.021.001.021.001.021.004.021.004.022.006.021.006.023.008.022.01.022.01.023.012.023.013.023.014.023.015.024.017.023.018.024.019.024.02.025.021.024.023.024.023.025.051.05.056.05.06.05.065.051.07.052.074.051.079.052.083.052.088.052.092.052.096.052.101.052.106.052.11.052.114.052.118.051.123.051.126.051.131.05.136.05.139.049.143.048.148.048.152.048.155.046.16.046.163.045.168.043.172.043.175.042.179.041.183.04.187.038.191.038.194.036.198.034.202.033.205.032.21.031.212.028.216.027.22.026.224.023.226.022.231.021.233.018.237.016.241.014.244.012.247.011.25.008.254.005.257.004.26.001.26-.001.257-.004.254-.005.25-.008.247-.011.244-.012.241-.014.237-.016.233-.018.231-.021.226-.022.224-.023.22-.026.216-.027.212-.028.21-.031.205-.032.202-.033.198-.034.194-.036.191-.038.187-.038.183-.04.179-.041.175-.042.172-.043.168-.043.163-.045.16-.046.155-.046.152-.048.148-.048.143-.048.139-.049.136-.05.131-.05.126-.051.123-.051.118-.051.114-.052.11-.052.106-.052.101-.052.096-.052.092-.052.088-.052.083-.052.079-.052.074-.051.07-.052.065-.051.06-.05.056-.05.051-.05.023-.025.023-.024.021-.024.02-.025.019-.024.018-.024.017-.023.015-.024.014-.023.013-.023.012-.023.01-.023.01-.022.008-.022.006-.023.006-.021.004-.022.004-.021.001-.021.001-.021-.001-.021-.001-.021-.004-.021-.004-.022-.006-.021-.006-.023-.008-.022-.01-.022-.01-.023-.012-.023-.013-.023-.014-.023-.015-.024-.017-.023-.018-.024-.019-.024-.02-.025-.021-.024-.023-.024-.023-.025-.051-.05-.056-.05-.06-.05-.065-.051-.07-.052-.074-.051-.079-.052-.083-.052-.088-.052-.092-.052-.096-.052-.101-.052-.106-.052-.11-.052-.114-.052-.118-.051-.123-.051-.126-.051-.131-.05-.136-.05-.139-.049-.143-.048-.148-.048-.152-.048-.155-.046-.16-.046-.163-.045-.168-.043-.172-.043-.175-.042-.179-.041-.183-.04-.187-.038-.191-.038-.194-.036-.198-.034-.202-.033-.205-.032-.21-.031-.212-.028-.216-.027-.22-.026-.224-.023-.226-.022-.231-.021-.233-.018-.237-.016-.241-.014-.244-.012-.247-.011-.25-.008-.254-.005-.257-.004-.26-.001-.26.001z"></path></symbol></defs><defs><symbol id="clock" width="24" height="24"><path transform="scale(.5)" d="M12 2c5.514 0 10 4.486 10 10s-4.486 10-10 10-10-4.486-10-10 4.486-10 10-10zm0-2c-6.627 0-12 5.373-12 12s5.373 12 12 12 12-5.373 12-12-5.373-12-12-12zm5.848 12.459c.202.038.202.333.001.372-1.907.361-6.045 1.111-6.547 1.111-.719 0-1.301-.582-1.301-1.301 0-.512.77-5.447 1.125-7.445.034-.192.312-.181.343.014l.985 6.238 5.394 1.011z"></path></symbol></defs><defs><marker id="arrowhead" refX="7.9" refY="5" markerUnits="userSpaceOnUse" markerWidth="12" markerHeight="12" orient="auto-start-reverse"><path d="M -1 0 L 10 5 L 0 10 z"></path></marker></defs><defs><marker id="crosshead" markerWidth="15" markerHeight="8" orient="auto" refX="4" refY="4.5"><path fill="none" stroke="#000000" stroke-width="1pt" d="M 1,2 L 6,7 M 6,2 L 1,7" style="stroke-dasharray: 0, 0;"></path></marker></defs><defs><marker id="filled-head" refX="15.5" refY="7" markerWidth="20" markerHeight="28" orient="auto"><path d="M 18,7 L9,13 L14,7 L9,1 Z"></path></marker></defs><defs><marker id="sequencenumber" refX="15" refY="15" markerWidth="60" markerHeight="40" orient="auto"><circle cx="15" cy="15" r="6"></circle></marker></defs><g><rect x="55" y="104" fill="#EDF2AE" stroke="#666" width="1354" height="39" class="note"></rect><text x="732" y="109" text-anchor="middle" dominant-baseline="middle" alignment-baseline="middle" class="noteText" dy="1em" style="font-size: 16px; font-weight: 400;"><tspan x="732">Live readback after an accepted keyframe</tspan></text></g><g><rect x="55" y="735" fill="#EDF2AE" stroke="#666" width="1830" height="39" class="note"></rect><text x="970" y="740" text-anchor="middle" dominant-baseline="middle" alignment-baseline="middle" class="noteText" dy="1em" style="font-size: 16px; font-weight: 400;"><tspan x="970">End-of-run export and repo normalization</tspan></text></g><g><line x1="741" y1="1336" x2="1160" y2="1336" class="loopLine"></line><line x1="1160" y1="1336" x2="1160" y2="1429" class="loopLine"></line><line x1="741" y1="1429" x2="1160" y2="1429" class="loopLine"></line><line x1="741" y1="1336" x2="741" y2="1429" class="loopLine"></line><polygon points="741,1336 791,1336 791,1349 782.6,1356 741,1356" class="labelBox"></polygon><text x="766" y="1349" text-anchor="middle" dominant-baseline="middle" alignment-baseline="middle" class="labelText" style="font-size: 16px; font-weight: 400;">opt</text><text x="975.5" y="1354" text-anchor="middle" class="loopText" style="font-size: 16px; font-weight: 400;"><tspan x="975.5">[point cloud requested by output policy]</tspan></text></g><text x="731" y="158" text-anchor="middle" dominant-baseline="middle" alignment-baseline="middle" class="messageText" dy="1em" style="font-size: 16px; font-weight: 400;">get_view(view_index, pose/depth/intri)</text><line x1="81" y1="191" x2="1380" y2="191" class="messageLine0" stroke-width="2" stroke="none" marker-end="url(#arrowhead)" style="fill: none;"></line><line x1="81" y1="191" x2="81" y2="191" stroke-width="0" marker-start="url(#sequencenumber)"></line><text x="81" y="195" font-family="sans-serif" font-size="12px" text-anchor="middle" class="sequenceNumber">1</text><text x="734" y="206" text-anchor="middle" dominant-baseline="middle" alignment-baseline="middle" class="messageText" dy="1em" style="font-size: 16px; font-weight: 400;">pose, scaled depth, intrinsics</text><line x1="1383" y1="239" x2="84" y2="239" class="messageLine1" stroke-width="2" stroke="none" marker-end="url(#arrowhead)" style="stroke-dasharray: 3, 3; fill: none;"></line><line x1="1383" y1="239" x2="1383" y2="239" stroke-width="0" marker-start="url(#sequencenumber)"></line><text x="1383" y="243" font-family="sans-serif" font-size="12px" text-anchor="middle" class="sequenceNumber">2</text><text x="81" y="254" text-anchor="middle" dominant-baseline="middle" alignment-baseline="middle" class="messageText" dy="1em" style="font-size: 16px; font-weight: 400;">FrameTransform + CameraIntrinsics + depth_map</text><path d="M 81,287 C 141,277 141,317 81,307" class="messageLine1" stroke-width="2" stroke="none" marker-end="url(#arrowhead)" style="stroke-dasharray: 3, 3; fill: none;"></path><line x1="81" y1="287" x2="81" y2="287" stroke-width="0" marker-start="url(#sequencenumber)"></line><text x="81" y="291" font-family="sans-serif" font-size="12px" text-anchor="middle" class="sequenceNumber">3</text><text x="731" y="332" text-anchor="middle" dominant-baseline="middle" alignment-baseline="middle" class="messageText" dy="1em" style="font-size: 16px; font-weight: 400;">get_pointmap_vis(view_index)</text><line x1="81" y1="365" x2="1380" y2="365" class="messageLine0" stroke-width="2" stroke="none" marker-end="url(#arrowhead)" style="fill: none;"></line><line x1="81" y1="365" x2="81" y2="365" stroke-width="0" marker-start="url(#sequencenumber)"></line><text x="81" y="369" font-family="sans-serif" font-size="12px" text-anchor="middle" class="sequenceNumber">4</text><text x="1385" y="380" text-anchor="middle" dominant-baseline="middle" alignment-baseline="middle" class="messageText" dy="1em" style="font-size: 16px; font-weight: 400;">get_view(filter_outlier=False)</text><path d="M 1385,413 C 1445,403 1445,443 1385,433" class="messageLine0" stroke-width="2" stroke="none" marker-end="url(#arrowhead)" style="fill: none;"></path><line x1="1385" y1="413" x2="1385" y2="413" stroke-width="0" marker-start="url(#sequencenumber)"></line><text x="1385" y="417" font-family="sans-serif" font-size="12px" text-anchor="middle" class="sequenceNumber">5</text><text x="1385" y="458" text-anchor="middle" dominant-baseline="middle" alignment-baseline="middle" class="messageText" dy="1em" style="font-size: 16px; font-weight: 400;">compute_local_pointclouds(scaled_depth, intri)</text><path d="M 1385,491 C 1445,481 1445,521 1385,511" class="messageLine0" stroke-width="2" stroke="none" marker-end="url(#arrowhead)" style="fill: none;"></path><line x1="1385" y1="491" x2="1385" y2="491" stroke-width="0" marker-start="url(#sequencenumber)"></line><text x="1385" y="495" font-family="sans-serif" font-size="12px" text-anchor="middle" class="sequenceNumber">6</text><text x="734" y="536" text-anchor="middle" dominant-baseline="middle" alignment-baseline="middle" class="messageText" dy="1em" style="font-size: 16px; font-weight: 400;">preview_rgb, scaled camera-local pointmap</text><line x1="1383" y1="569" x2="84" y2="569" class="messageLine1" stroke-width="2" stroke="none" marker-end="url(#arrowhead)" style="stroke-dasharray: 3, 3; fill: none;"></line><line x1="1383" y1="569" x2="1383" y2="569" stroke-width="0" marker-start="url(#sequencenumber)"></line><text x="1383" y="573" font-family="sans-serif" font-size="12px" text-anchor="middle" class="sequenceNumber">7</text><text x="81" y="584" text-anchor="middle" dominant-baseline="middle" alignment-baseline="middle" class="messageText" dy="1em" style="font-size: 16px; font-weight: 400;">_build_live_pointmap() + count valid z &gt; 0</text><path d="M 81,617 C 141,607 141,647 81,637" class="messageLine1" stroke-width="2" stroke="none" marker-end="url(#arrowhead)" style="stroke-dasharray: 3, 3; fill: none;"></path><line x1="81" y1="617" x2="81" y2="617" stroke-width="0" marker-start="url(#sequencenumber)"></line><text x="81" y="621" font-family="sans-serif" font-size="12px" text-anchor="middle" class="sequenceNumber">8</text><text x="81" y="662" text-anchor="middle" dominant-baseline="middle" alignment-baseline="middle" class="messageText" dy="1em" style="font-size: 16px; font-weight: 400;">emit SlamUpdate(pose, depth_map, pointmap, preview_rgb)</text><path d="M 81,695 C 141,685 141,725 81,715" class="messageLine1" stroke-width="2" stroke="none" marker-end="url(#arrowhead)" style="stroke-dasharray: 3, 3; fill: none;"></path><line x1="81" y1="695" x2="81" y2="695" stroke-width="0" marker-start="url(#sequencenumber)"></line><text x="81" y="699" font-family="sans-serif" font-size="12px" text-anchor="middle" class="sequenceNumber">9</text><text x="731" y="789" text-anchor="middle" dominant-baseline="middle" alignment-baseline="middle" class="messageText" dy="1em" style="font-size: 16px; font-weight: 400;">save_data_all(native_output_dir, save_images=False, save_depths=False)</text><line x1="81" y1="822" x2="1380" y2="822" class="messageLine0" stroke-width="2" stroke="none" marker-end="url(#arrowhead)" style="fill: none;"></line><line x1="81" y1="822" x2="81" y2="822" stroke-width="0" marker-start="url(#sequencenumber)"></line><text x="81" y="826" font-family="sans-serif" font-size="12px" text-anchor="middle" class="sequenceNumber">10</text><text x="1621" y="837" text-anchor="middle" dominant-baseline="middle" alignment-baseline="middle" class="messageText" dy="1em" style="font-size: 16px; font-weight: 400;">collect best-node poses, depths, scales, confs, intrinsics</text><line x1="1385" y1="870" x2="1856" y2="870" class="messageLine0" stroke-width="2" stroke="none" marker-end="url(#arrowhead)" style="fill: none;"></line><line x1="1385" y1="870" x2="1385" y2="870" stroke-width="0" marker-start="url(#sequencenumber)"></line><text x="1385" y="874" font-family="sans-serif" font-size="12px" text-anchor="middle" class="sequenceNumber">11</text><text x="1861" y="885" text-anchor="middle" dominant-baseline="middle" alignment-baseline="middle" class="messageText" dy="1em" style="font-size: 16px; font-weight: 400;">write view_graph.npz, trajectory.npy, scales.npy, confs.npz, intrinsics.npy</text><path d="M 1861,918 C 1921,908 1921,948 1861,938" class="messageLine0" stroke-width="2" stroke="none" marker-end="url(#arrowhead)" style="fill: none;"></path><line x1="1861" y1="918" x2="1861" y2="918" stroke-width="0" marker-start="url(#sequencenumber)"></line><text x="1861" y="922" font-family="sans-serif" font-size="12px" text-anchor="middle" class="sequenceNumber">12</text><text x="1861" y="963" text-anchor="middle" dominant-baseline="middle" alignment-baseline="middle" class="messageText" dy="1em" style="font-size: 16px; font-weight: 400;">scaled_depths = depths * scales</text><path d="M 1861,996 C 1921,986 1921,1026 1861,1016" class="messageLine0" stroke-width="2" stroke="none" marker-end="url(#arrowhead)" style="fill: none;"></path><line x1="1861" y1="996" x2="1861" y2="996" stroke-width="0" marker-start="url(#sequencenumber)"></line><text x="1861" y="1000" font-family="sans-serif" font-size="12px" text-anchor="middle" class="sequenceNumber">13</text><text x="1861" y="1041" text-anchor="middle" dominant-baseline="middle" alignment-baseline="middle" class="messageText" dy="1em" style="font-size: 16px; font-weight: 400;">compute_local_pointclouds(scaled_depths, intrinsics)</text><path d="M 1861,1074 C 1921,1064 1921,1104 1861,1094" class="messageLine0" stroke-width="2" stroke="none" marker-end="url(#arrowhead)" style="fill: none;"></path><line x1="1861" y1="1074" x2="1861" y2="1074" stroke-width="0" marker-start="url(#sequencenumber)"></line><text x="1861" y="1078" font-family="sans-serif" font-size="12px" text-anchor="middle" class="sequenceNumber">14</text><text x="1861" y="1119" text-anchor="middle" dominant-baseline="middle" alignment-baseline="middle" class="messageText" dy="1em" style="font-size: 16px; font-weight: 400;">transform local points with T_world_camera</text><path d="M 1861,1152 C 1921,1142 1921,1182 1861,1172" class="messageLine0" stroke-width="2" stroke="none" marker-end="url(#arrowhead)" style="fill: none;"></path><line x1="1861" y1="1152" x2="1861" y2="1152" stroke-width="0" marker-start="url(#sequencenumber)"></line><text x="1861" y="1156" font-family="sans-serif" font-size="12px" text-anchor="middle" class="sequenceNumber">15</text><text x="972" y="1197" text-anchor="middle" dominant-baseline="middle" alignment-baseline="middle" class="messageText" dy="1em" style="font-size: 16px; font-weight: 400;">pointcloud.ply and native files</text><line x1="1859" y1="1230" x2="84" y2="1230" class="messageLine1" stroke-width="2" stroke="none" marker-end="url(#arrowhead)" style="stroke-dasharray: 3, 3; fill: none;"></line><line x1="1859" y1="1230" x2="1859" y2="1230" stroke-width="0" marker-start="url(#sequencenumber)"></line><text x="1859" y="1234" font-family="sans-serif" font-size="12px" text-anchor="middle" class="sequenceNumber">16</text><text x="415" y="1245" text-anchor="middle" dominant-baseline="middle" alignment-baseline="middle" class="messageText" dy="1em" style="font-size: 16px; font-weight: 400;">build_vista_artifacts(native_output_dir, artifact_root, output_policy, timestamps_s)</text><line x1="81" y1="1278" x2="748" y2="1278" class="messageLine0" stroke-width="2" stroke="none" marker-end="url(#arrowhead)" style="fill: none;"></line><line x1="81" y1="1278" x2="81" y2="1278" stroke-width="0" marker-start="url(#sequencenumber)"></line><text x="81" y="1282" font-family="sans-serif" font-size="12px" text-anchor="middle" class="sequenceNumber">17</text><text x="949" y="1293" text-anchor="middle" dominant-baseline="middle" alignment-baseline="middle" class="messageText" dy="1em" style="font-size: 16px; font-weight: 400;">write_tum_trajectory(slam/trajectory.tum)</text><line x1="753" y1="1326" x2="1145" y2="1326" class="messageLine0" stroke-width="2" stroke="none" marker-end="url(#arrowhead)" style="fill: none;"></line><line x1="753" y1="1326" x2="753" y2="1326" stroke-width="0" marker-start="url(#sequencenumber)"></line><text x="753" y="1330" font-family="sans-serif" font-size="12px" text-anchor="middle" class="sequenceNumber">18</text><text x="949" y="1386" text-anchor="middle" dominant-baseline="middle" alignment-baseline="middle" class="messageText" dy="1em" style="font-size: 16px; font-weight: 400;">write_point_cloud_ply(slam/point_cloud.ply)</text><line x1="753" y1="1419" x2="1145" y2="1419" class="messageLine0" stroke-width="2" stroke="none" marker-end="url(#arrowhead)" style="fill: none;"></line><line x1="753" y1="1419" x2="753" y2="1419" stroke-width="0" marker-start="url(#sequencenumber)"></line><text x="753" y="1423" font-family="sans-serif" font-size="12px" text-anchor="middle" class="sequenceNumber">19</text><text x="418" y="1444" text-anchor="middle" dominant-baseline="middle" alignment-baseline="middle" class="messageText" dy="1em" style="font-size: 16px; font-weight: 400;">SlamArtifacts(trajectory, point cloud refs, extras)</text><line x1="751" y1="1477" x2="84" y2="1477" class="messageLine1" stroke-width="2" stroke="none" marker-end="url(#arrowhead)" style="stroke-dasharray: 3, 3; fill: none;"></line><line x1="751" y1="1477" x2="751" y2="1477" stroke-width="0" marker-start="url(#sequencenumber)"></line><text x="751" y="1481" font-family="sans-serif" font-size="12px" text-anchor="middle" class="sequenceNumber">20</text></svg>