<?xml version="1.0" encoding="UTF-8"?>
<svg xmlns="http://www.w3.org/2000/svg" xmlns:xlink="http://www.w3.org/1999/xlink" width="768" height="289.5" viewBox="0 0 768 289.5">
<path fill-rule="nonzero" fill="rgb(98.822021%, 33.332825%, 33.332825%)" fill-opacity="1" d="M 281.582031 8.195312 L 281.582031 281.304688 L 312.949219 281.304688 L 312.949219 41.851562 L 313.710938 41.851562 L 404.5625 281.304688 L 431.328125 281.304688 L 522.1875 41.851562 L 522.949219 41.851562 L 522.949219 281.304688 L 554.6875 281.304688 L 554.6875 8.195312 L 505.734375 8.195312 L 419.472656 238.464844 L 418.722656 238.464844 L 332.453125 8.195312 Z M 725.386719 8.195312 L 622.96875 42.332031 L 657.105469 144.75 L 759.527344 110.613281 Z M 8.472656 8.199219 L 8.472656 281.304688 L 41.367188 281.304688 L 41.367188 156.222656 L 203.171875 156.222656 L 203.171875 281.304688 L 236.0625 281.304688 L 236.0625 8.199219 L 203.171875 8.199219 L 203.171875 128.6875 L 41.367188 128.6875 L 41.367188 8.199219 Z M 8.472656 8.199219 "/>
</svg>
